<svg id="Logo" xmlns="http://www.w3.org/2000/svg" viewBox="0 0 649.63 272.49"><defs><style>.cls-1{fill:#e03c31;}.cls-2{fill:#4a3041;}</style></defs><title>Artboard 1</title><path class="cls-1" d="M110.44,180.52a37.44,37.44,0,0,1-23.37-7.6c-12.78-9.79-17.9-24.46-21.52-38.87a107.77,107.77,0,0,1-3.65-22.79c-.38-10.43,1.64-19,6.17-26.26C77,70.75,93,61.94,111.93,60.84h0c17.94-1,37.48,6.15,51,18.78,10.09,9.44,15.7,21,15.81,32.43.12,13.57-6.31,27.68-19.11,41.94-7.93,8.83-18.59,19.48-30.73,23.4A66.76,66.76,0,0,1,117.43,180,51.88,51.88,0,0,1,110.44,180.52Zm1.72-115.65C94.53,65.9,79.7,74,71.5,87.15c-4.08,6.53-5.9,14.37-5.56,24a104,104,0,0,0,3.53,21.95c4,15.83,8.92,28.12,20.06,36.65,7.39,5.65,16.59,7.78,27.35,6.31a62.62,62.62,0,0,0,10.75-2.5c11.22-3.62,21.37-13.8,29-22.25,12.11-13.49,18.19-26.67,18.08-39.2-.09-10.36-5.25-20.84-14.52-29.51-12.73-11.9-31.12-18.68-48-17.69Zm1.71,98.45c-16,0-26.67-10.85-31.79-32.35a76.36,76.36,0,0,1-2.25-15.25C79.57,107.92,81,101.46,84.22,96c6.09-10.34,17.51-16.77,31.34-17.63h0a47.49,47.49,0,0,1,34.69,12.36c7.2,6.69,11.21,15.11,11.3,23.68.1,9.45-4.15,19.8-12.28,30-7.11,8.88-14.2,14.34-21.65,16.67A51.35,51.35,0,0,1,119,163,39.43,39.43,0,0,1,113.87,163.32Zm1.94-80.92C103.34,83.18,93.1,88.88,87.7,98c-2.81,4.78-4.07,10.52-3.82,17.54A72.53,72.53,0,0,0,86,130c5.16,21.68,15.79,31.14,32.5,28.92a47.34,47.34,0,0,0,7.89-1.79c6.66-2.09,13.11-7.11,19.71-15.34,5.26-6.56,11.5-16.64,11.39-27.38-.08-7.46-3.63-14.83-10-20.76A43.4,43.4,0,0,0,115.81,82.4Zm2.39,65.18c-10.63,0-17.39-6.53-20.1-19.45a41,41,0,0,1-.88-7.34c-.33-12.4,6.62-25.52,22.87-26.88h0a22.27,22.27,0,0,1,17.27,5.5A25.63,25.63,0,0,1,145.41,118a31.41,31.41,0,0,1-5.66,18.81,25.43,25.43,0,0,1-18.3,10.55A29,29,0,0,1,118.19,147.58Zm2.22-49.65c-9.1.76-19.57,7.18-19.17,22.75a37,37,0,0,0,.8,6.62c2.55,12.14,8.57,17.25,18.95,16.08,14.26-1.61,20.56-14.23,20.37-25.27a21.87,21.87,0,0,0-6.73-15.7,18.33,18.33,0,0,0-14.21-4.47Zm3.06,32.38a7.77,7.77,0,0,1-5.24-2,9.77,9.77,0,0,1-3.15-7c-.1-4.43,2.94-9.31,8.19-9.81a7.33,7.33,0,0,1,5.7,1.84,9.92,9.92,0,0,1,3.09,7c.09,4.4-2.57,9.36-7.67,9.89A9,9,0,0,1,123.48,130.32Zm.58-14.8-.4,0h0c-3.17.3-4.58,3.57-4.53,5.69a5.74,5.74,0,0,0,1.78,4.08,3.85,3.85,0,0,0,3.07.93c2.86-.3,4.09-3.56,4-5.78a5.84,5.84,0,0,0-1.74-4.09A3.23,3.23,0,0,0,124.06,115.52Z"/><path class="cls-2" d="M224.56,74.16V104h-3.83V74.16H209.83V70.47h25.69v3.68Z"/><path class="cls-2" d="M268.87,104V89.22H248.68V104h-3.83V70.47h3.83V85.59h20.19V70.47h3.83V104Z"/><path class="cls-2" d="M287.65,74.16v11h16.89v3.68H287.65v11.48h19.52V104H283.82V70.47h22.72v3.68Z"/><path class="cls-2" d="M332.85,104V70.47h3.83V104Z"/><path class="cls-2" d="M372.93,104,352.83,77.07V104H349V70.47h4L373.07,97.4V70.47h3.78V104Z"/><path class="cls-2" d="M410.19,73.44,408.57,77a17.3,17.3,0,0,0-9.23-2.82c-4.3,0-7.13,1.63-7.13,4.45,0,8.61,18.85,4.11,18.8,16.26,0,5.6-4.93,9.18-12.1,9.18A19.11,19.11,0,0,1,386.08,99l1.72-3.44A16.66,16.66,0,0,0,399,100.27c4.83,0,7.85-2,7.85-5.17C406.85,86.31,388,91,388,79c0-5.26,4.64-8.66,11.58-8.66A19.81,19.81,0,0,1,410.19,73.44Z"/><path class="cls-2" d="M431.43,74.16V104H427.6V74.16H416.69V70.47h25.69v3.68Z"/><path class="cls-2" d="M450.32,104V70.47h3.83V104Z"/><path class="cls-2" d="M476.87,74.16V104H473V74.16H462.13V70.47h25.69v3.68Z"/><path class="cls-2" d="M523.12,90.18c0,8.71-5.26,14-14,14S495,98.89,495,90.18V70.47h3.83V90.18c0,6.51,3.92,10.28,10.29,10.28s10.19-3.78,10.19-10.28V70.47h3.83Z"/><path class="cls-2" d="M545.07,74.16V104h-3.83V74.16H530.34V70.47H556v3.68Z"/><path class="cls-2" d="M567.79,74.16v11h16.89v3.68H567.79v11.48h19.52V104H564V70.47h22.72v3.68Z"/><path class="cls-2" d="M246.28,140.41c0,9.42-7.75,16.93-17.51,16.93s-17.56-7.51-17.56-16.93,7.75-16.84,17.56-16.84S246.28,131,246.28,140.41Zm-31.19,0a13.64,13.64,0,1,0,13.68-13.2A13.5,13.5,0,0,0,215.09,140.41Z"/><path class="cls-2" d="M258.08,127.35v11.77h15.64v3.68H258.08v14.35h-3.83V123.67h21.29v3.68Z"/><path class="cls-2" d="M319,153.52v3.64H300.47V123.67h3.83v29.85Z"/><path class="cls-2" d="M331.41,127.35v11H348.3V142H331.41v11.48h19.52v3.64H327.59V123.67h22.72v3.68Z"/><path class="cls-2" d="M387.86,140.79v12.15a20.68,20.68,0,0,1-12.44,4.4A17.12,17.12,0,0,1,358,140.41c0-9.42,7.8-16.84,17.65-16.84A19,19,0,0,1,388,128.16l-2.2,2.87a15.39,15.39,0,0,0-10.14-3.87,13.28,13.28,0,1,0,0,26.55,16,16,0,0,0,8.8-2.82V140.79Z"/><path class="cls-2" d="M402.44,148.69l-3.73,8.47h-4.07l15-33.49h4l15,33.49h-4.16l-3.73-8.47ZM411.53,128l-7.46,17h15Z"/><path class="cls-2" d="M462,128.45l-2.3,2.92a14.07,14.07,0,0,0-9.9-4.21,13.21,13.21,0,1,0,0,26.41,14.6,14.6,0,0,0,9.9-4l2.34,2.63a18.5,18.5,0,0,1-12.44,5.17,17,17,0,0,1-17.32-17c0-9.38,7.75-16.79,17.46-16.79A18.1,18.1,0,0,1,462,128.45Z"/><path class="cls-2" d="M484.18,157.15H480.4V145.82l-13-22.15h4l10.86,17.46L493,123.67h3.92l-12.72,22Z"/><path class="cls-2" d="M244.7,210.35l0-27.6-12.2,24.06h-2.3L218,182.75v27.6h-3.64V176.86h4.74L231.36,201l12.2-24.11h4.69v33.49Z"/><path class="cls-2" d="M263.74,201.88,260,210.35h-4.07l15-33.49h4l15,33.49h-4.16L282,201.88Zm9.09-20.67-7.46,17h15Z"/><path class="cls-2" d="M321.47,210.35l-20.09-26.88v26.88h-3.83V176.86h4l20.09,26.93V176.86h3.78v33.49Z"/><path class="cls-2" d="M340.89,201.88l-3.73,8.47h-4.07l15-33.49h4l15,33.49h-4.16l-3.73-8.47ZM350,181.22l-7.46,17h15Z"/><path class="cls-2" d="M400.63,194v12.15a20.68,20.68,0,0,1-12.44,4.4,17.12,17.12,0,0,1-17.46-16.93c0-9.42,7.8-16.84,17.65-16.84a19,19,0,0,1,12.34,4.59l-2.2,2.87a15.39,15.39,0,0,0-10.14-3.87,13.28,13.28,0,1,0,0,26.55,16,16,0,0,0,8.8-2.82V194Z"/><path class="cls-2" d="M416.12,180.55v11H433v3.68H416.12v11.48h19.52v3.64H412.3V176.86H435v3.68Z"/><path class="cls-2" d="M476.15,210.35l0-27.6-12.2,24.06h-2.3l-12.15-24.06v27.6h-3.64V176.86h4.74L462.81,201,475,176.86h4.69v33.49Z"/><path class="cls-2" d="M495.79,180.55v11h16.89v3.68H495.79v11.48h19.52v3.64H492V176.86h22.72v3.68Z"/><path class="cls-2" d="M549.42,210.35l-20.09-26.88v26.88H525.5V176.86h4l20.09,26.93V176.86h3.78v33.49Z"/><path class="cls-2" d="M576.4,180.55v29.8h-3.83v-29.8H561.67v-3.68h25.69v3.68Z"/></svg>