<?xml version="1.0" encoding="utf-8"?>
<!-- Generator: Adobe Illustrator 21.1.0, SVG Export Plug-In . SVG Version: 6.00 Build 0)  -->
<svg version="1.1" id="Logo" xmlns="http://www.w3.org/2000/svg" xmlns:xlink="http://www.w3.org/1999/xlink" x="0px" y="0px"
	 viewBox="0 0 529.5 154" style="enable-background:new 0 0 529.5 154;" xml:space="preserve">
<style type="text/css">
	.st0{fill:#E03C31;}
	.st1{fill:#4A3041;}
</style>
<path class="st0" d="M49.9,121.2c-8.9,0-16.8-2.5-23.4-7.6C13.7,103.8,8.6,89.1,5,74.7c-2.3-9.1-3.4-16.1-3.6-22.8
	C1,41.5,3,32.9,7.6,25.6c8.9-14.1,24.9-23,43.8-24.1l0,0c17.9-1,37.5,6.1,51,18.8c10.1,9.4,15.7,21,15.8,32.4
	c0.1,13.6-6.3,27.7-19.1,41.9c-7.9,8.8-18.6,19.5-30.7,23.4c-3.9,1.3-7.7,2.2-11.4,2.7C54.5,121.1,52.2,121.2,49.9,121.2z M51.7,5.6
	c-17.6,1-32.5,9.1-40.7,22.3c-4.1,6.5-5.9,14.4-5.6,24c0.2,6.4,1.3,13.2,3.5,21.9c4,15.8,8.9,28.1,20.1,36.6
	c7.4,5.7,16.6,7.8,27.4,6.3c3.5-0.5,7.1-1.3,10.8-2.5c11.2-3.6,21.4-13.8,29-22.3c12.1-13.5,18.2-26.7,18.1-39.2
	c-0.1-10.4-5.2-20.8-14.5-29.5C86.9,11.4,68.5,4.6,51.7,5.6L51.7,5.6z M53.4,104c-16,0-26.7-10.9-31.8-32.3
	c-1.4-5.8-2.1-10.6-2.2-15.2c-0.3-7.8,1.2-14.3,4.4-19.7C29.9,26.5,41.3,20,55.1,19.2l0,0c12.6-0.8,25.5,3.8,34.7,12.4
	c7.2,6.7,11.2,15.1,11.3,23.7c0.1,9.4-4.1,19.8-12.3,30c-7.1,8.9-14.2,14.3-21.7,16.7c-2.9,0.9-5.8,1.6-8.6,1.9
	C56.8,103.9,55,104,53.4,104z M55.3,23.1c-12.5,0.8-22.7,6.5-28.1,15.6c-2.8,4.8-4.1,10.5-3.8,17.5c0.2,4.4,0.8,9,2.1,14.5
	c5.2,21.7,15.8,31.1,32.5,28.9c2.5-0.3,5.2-0.9,7.9-1.8c6.7-2.1,13.1-7.1,19.7-15.3c5.3-6.6,11.5-16.6,11.4-27.4
	c-0.1-7.5-3.6-14.8-10-20.8C78.6,26.6,66.8,22.4,55.3,23.1L55.3,23.1z M57.7,88.3c-10.6,0-17.4-6.5-20.1-19.5
	c-0.5-2.5-0.8-5-0.9-7.3C36.4,49.1,43.3,36,59.6,34.6l0,0c6.7-0.6,12.7,1.3,17.3,5.5c5,4.5,7.9,11.3,8.1,18.6
	c0.1,6.9-1.9,13.6-5.7,18.8c-4.3,6-10.7,9.7-18.3,10.6C59.8,88.2,58.7,88.3,57.7,88.3z M59.9,38.6c-9.1,0.8-19.6,7.2-19.2,22.7
	c0.1,2.1,0.3,4.4,0.8,6.6C44.1,80,50.1,85.2,60.4,84C74.7,82.4,81,69.8,80.8,58.7c-0.1-6.1-2.6-12-6.7-15.7
	C70.4,39.7,65.5,38.2,59.9,38.6L59.9,38.6z M63,71c-2,0-3.8-0.7-5.2-2c-1.9-1.7-3.1-4.3-3.2-7c-0.1-4.4,2.9-9.3,8.2-9.8
	c2.1-0.2,4.1,0.4,5.7,1.8c1.9,1.7,3,4.3,3.1,7c0.1,4.4-2.6,9.4-7.7,9.9C63.6,71,63.3,71,63,71z M63.6,56.2c-0.1,0-0.3,0-0.4,0l0,0
	c-3.2,0.3-4.6,3.6-4.5,5.7c0,1.6,0.7,3.1,1.8,4.1c0.8,0.7,1.9,1.1,3.1,0.9c2.9-0.3,4.1-3.6,4-5.8c0-1.6-0.7-3.2-1.7-4.1
	C65.1,56.5,64.4,56.2,63.6,56.2z"/>
<g>
	<g>
		<path class="st1" d="M164.1,14.9v29.8h-3.8V14.9h-10.9v-3.7h25.7v3.7H164.1z"/>
		<path class="st1" d="M208.4,44.7V29.9h-20.2v14.8h-3.8V11.2h3.8v15.1h20.2V11.2h3.8v33.5H208.4z"/>
		<path class="st1" d="M227.2,14.9v11h16.9v3.7h-16.9v11.5h19.5v3.6h-23.3V11.2h22.7v3.7H227.2z"/>
		<path class="st1" d="M272.3,44.7V11.2h3.8v33.5H272.3z"/>
		<path class="st1" d="M312.4,44.7l-20.1-26.9v26.9h-3.8V11.2h4l20.1,26.9V11.2h3.8v33.5H312.4z"/>
		<path class="st1" d="M349.7,14.1l-1.6,3.6c-3-2-6.6-2.8-9.2-2.8c-4.3,0-7.1,1.6-7.1,4.4c0,8.6,18.8,4.1,18.8,16.3
			c0,5.6-4.9,9.2-12.1,9.2c-4.9,0-9.7-2.1-12.8-5.1l1.7-3.4c3.1,3,7.4,4.7,11.1,4.7c4.8,0,7.8-2,7.8-5.2c0-8.8-18.8-4.1-18.8-16.1
			c0-5.3,4.6-8.7,11.6-8.7C342.9,11,346.9,12.3,349.7,14.1z"/>
		<path class="st1" d="M370.9,14.9v29.8h-3.8V14.9h-10.9v-3.7h25.7v3.7H370.9z"/>
		<path class="st1" d="M389.8,44.7V11.2h3.8v33.5H389.8z"/>
		<path class="st1" d="M416.4,14.9v29.8h-3.9V14.9h-10.9v-3.7h25.7v3.7H416.4z"/>
		<path class="st1" d="M462.6,30.9c0,8.7-5.3,14-14,14c-8.8,0-14.1-5.3-14.1-14V11.2h3.8v19.7c0,6.5,3.9,10.3,10.3,10.3
			s10.2-3.8,10.2-10.3V11.2h3.8L462.6,30.9L462.6,30.9z"/>
		<path class="st1" d="M484.6,14.9v29.8h-3.8V14.9h-10.9v-3.7h25.6v3.7H484.6z"/>
		<path class="st1" d="M507.3,14.9v11h16.9v3.7h-16.9v11.5h19.5v3.6h-23.3V11.2h22.7v3.7H507.3z"/>
		<path class="st1" d="M185.8,81.1c0,9.4-7.7,16.9-17.5,16.9s-17.6-7.5-17.6-16.9c0-9.5,7.7-16.8,17.6-16.8
			C178,64.3,185.8,71.7,185.8,81.1z M154.6,81.1c0,7.4,6.2,13.3,13.7,13.3s13.6-5.9,13.6-13.3s-6.1-13.2-13.6-13.2
			S154.6,73.7,154.6,81.1z"/>
		<path class="st1" d="M197.6,68.1v11.8h15.6v3.7h-15.6V98h-3.8V64.5h21.3v3.7L197.6,68.1L197.6,68.1z"/>
		<path class="st1" d="M258.5,94.2v3.6H240V64.3h3.8v29.8L258.5,94.2L258.5,94.2z"/>
		<path class="st1" d="M270.9,68.1v11h16.9v3.7h-16.9v11.5h19.5v3.6h-23.3V64.4h22.7v3.7C289.8,68.1,270.9,68.1,270.9,68.1z"/>
		<path class="st1" d="M327.4,81.5v12.1c-3.3,2.6-7.9,4.4-12.4,4.4c-9.7,0-17.5-7.5-17.5-16.9s7.8-16.8,17.7-16.8
			c4.6,0,9.1,1.8,12.3,4.6l-2.2,2.9c-2.7-2.4-6.4-3.9-10.1-3.9c-7.7,0-13.8,5.9-13.8,13.3s6.2,13.3,13.8,13.3c3,0,6.2-1.1,8.8-2.8
			V81.6L327.4,81.5L327.4,81.5z"/>
		<path class="st1" d="M341.9,89.4l-3.7,8.5h-4.1l15-33.5h4l15,33.5h-4.2l-3.7-8.5H341.9z M351,68.7l-7.5,17h15L351,68.7z"/>
		<path class="st1" d="M401.5,69.2l-2.3,2.9c-2.6-2.6-6.2-4.2-9.9-4.2c-7.6,0-13.6,5.8-13.6,13.2c0,7.3,6.1,13.2,13.6,13.2
			c3.7,0,7.3-1.5,9.9-4l2.3,2.6c-3.3,3.1-7.8,5.2-12.4,5.2c-9.7,0-17.3-7.5-17.3-17c0-9.4,7.8-16.8,17.5-16.8
			C393.8,64.3,398.3,66.1,401.5,69.2z"/>
		<path class="st1" d="M423.7,97.9h-3.8V86.6l-13-22.1h4L421.8,82l10.7-17.5h3.9l-12.7,22V97.9z"/>
		<path class="st1" d="M184.2,151v-27.6L172,147.5h-2.3l-12.2-24.1V151h-3.6v-33.5h4.7l12.2,24.1l12.2-24.1h4.7V151H184.2z"/>
		<path class="st1" d="M203.2,142.6l-3.7,8.5h-4.1l15-33.5h4l15,33.5h-4.2l-3.7-8.5H203.2z M212.3,121.9l-7.5,17h15L212.3,121.9z"/>
		<path class="st1" d="M261,151l-20.1-26.9V151h-3.8v-33.5h4l20.1,26.9v-26.9h3.8V151H261z"/>
		<path class="st1" d="M280.4,142.6l-3.7,8.5h-4.1l15-33.5h4l15,33.5h-4.2l-3.7-8.5H280.4z M289.5,121.9l-7.5,17h15L289.5,121.9z"/>
		<path class="st1" d="M340.1,134.7v12.2c-3.3,2.6-7.9,4.4-12.4,4.4c-9.7,0-17.5-7.5-17.5-16.9s7.8-16.8,17.7-16.8
			c4.6,0,9.1,1.8,12.3,4.6l-2.2,2.9c-2.7-2.4-6.4-3.9-10.1-3.9c-7.7,0-13.8,5.9-13.8,13.2c0,7.4,6.2,13.3,13.8,13.3
			c3,0,6.2-1.1,8.8-2.8v-10.2H340.1z"/>
		<path class="st1" d="M355.6,121.2v11h16.9v3.7h-16.9v11.5h19.5v3.6h-23.3v-33.5h22.7v3.7H355.6z"/>
		<path class="st1" d="M415.7,151v-27.6l-12.2,24.1h-2.3L389,123.4V151h-3.6v-33.5h4.7l12.2,24.1l12.2-24.1h4.7V151H415.7z"/>
		<path class="st1" d="M435.3,121.2v11h16.9v3.7h-16.9v11.5h19.5v3.6h-23.3v-33.5h22.7v3.7H435.3z"/>
		<path class="st1" d="M488.9,151l-20.1-26.9V151H465v-33.5h4l20.1,26.9v-26.9h3.8V151H488.9z"/>
		<path class="st1" d="M515.9,121.2V151h-3.8v-29.8h-10.9v-3.7h25.7v3.7H515.9z"/>
	</g>
</g>
</svg>
